<svg width="15" height="17" viewBox="0 0 15 17" fill="none" xmlns="http://www.w3.org/2000/svg">
<path d="M0.75 16.5C0.75 12.7725 3.7725 9.75 7.5 9.75C11.2275 9.75 14.25 12.7725 14.25 16.5M7.5 0.75C6.50544 0.75 5.55161 1.14509 4.84835 1.84835C4.14509 2.55161 3.75 3.50544 3.75 4.5C3.75 5.49456 4.14509 6.44839 4.84835 7.15165C5.55161 7.85491 6.50544 8.25 7.5 8.25C8.49456 8.25 9.44839 7.85491 10.1517 7.15165C10.8549 6.44839 11.25 5.49456 11.25 4.5C11.25 3.50544 10.8549 2.55161 10.1517 1.84835C9.44839 1.14509 8.49456 0.75 7.5 0.75Z" stroke="#9DA1A3" stroke-width="1.5" stroke-miterlimit="10"/>
</svg>
