<svg width="171" height="152" viewBox="0 0 171 152" fill="none" xmlns="http://www.w3.org/2000/svg">
<path d="M170.736 131.59L137.011 5.65844C136.028 1.98906 132.291 -0.944063 127.701 0.285L123.114 1.51406C121.279 2.00688 119.691 3.41406 118.346 5.74156C114.181 7.80188 102.82 10.8508 98.1588 11.1506C95.8313 9.80578 93.7502 9.38125 91.9155 9.87406L87.3258 11.1031C86.6074 11.2961 86.079 11.682 85.5001 12.0175V9.5C85.5001 4.25422 81.2458 0 76.0001 0H57C51.7543 0 47.5 4.25422 47.5 9.5V28.5H85.5001L115.68 146.342C116.663 150.011 120.401 152.944 124.99 151.715L129.577 150.486C131.412 149.993 133 148.586 134.345 146.258C138.474 144.216 149.836 141.152 154.532 140.849C156.86 142.194 158.941 142.619 160.776 142.126L165.365 140.897C169.952 139.668 171.722 135.259 170.736 131.59ZM130.836 129.494L103.503 27.4224L121.855 22.5061L149.189 124.578L130.836 129.494ZM0 114H38V38H0V114ZM28.5 0H9.50001C4.25422 0 0 4.25422 0 9.5V28.5H38V9.5C38 4.25422 33.7458 0 28.5 0ZM0 142.5C0 147.746 4.25422 152 9.50001 152H28.5C33.7458 152 38 147.746 38 142.5V123.5H0V142.5ZM47.5 114H85.5001V38H47.5V114ZM47.5 142.5C47.5 147.746 51.7543 152 57 152H76.0001C81.2458 152 85.5001 147.746 85.5001 142.5V123.5H47.5V142.5Z" fill="#F7F9FA"/>
</svg>
