<svg width="44" height="40" viewBox="0 0 44 40" fill="none" xmlns="http://www.w3.org/2000/svg">
<path d="M43.932 33.8594L35.2542 1.45597C35.0014 0.511806 34.0397 -0.242917 32.8587 0.0733333L31.6785 0.389583C31.2064 0.516389 30.7977 0.878472 30.4517 1.47736C29.3799 2.0075 26.4565 2.79201 25.2572 2.86917C24.6583 2.52313 24.1228 2.41389 23.6508 2.54069L22.4698 2.85694C22.2849 2.9066 22.149 3.0059 22 3.09222V2.44444C22 1.09465 20.9053 0 19.5556 0H14.6667C13.3169 0 12.2222 1.09465 12.2222 2.44444V7.33333H22L29.7657 37.6551C30.0185 38.5993 30.9803 39.354 32.1613 39.0378L33.3415 38.7215C33.8135 38.5947 34.2222 38.2326 34.5683 37.6338C35.6308 37.1082 38.5542 36.3199 39.7627 36.2419C40.3616 36.588 40.8971 36.6972 41.3692 36.5704L42.5501 36.2542C43.7304 35.9379 44.1856 34.8035 43.932 33.8594ZM33.6654 33.3201L26.6322 7.05604L31.3546 5.79104L38.3877 32.0551L33.6654 33.3201ZM0 29.3333H9.77778V9.77778H0V29.3333ZM7.33333 0H2.44444C1.09465 0 0 1.09465 0 2.44444V7.33333H9.77778V2.44444C9.77778 1.09465 8.68313 0 7.33333 0ZM0 36.6667C0 38.0165 1.09465 39.1111 2.44444 39.1111H7.33333C8.68313 39.1111 9.77778 38.0165 9.77778 36.6667V31.7778H0V36.6667ZM12.2222 29.3333H22V9.77778H12.2222V29.3333ZM12.2222 36.6667C12.2222 38.0165 13.3169 39.1111 14.6667 39.1111H19.5556C20.9053 39.1111 22 38.0165 22 36.6667V31.7778H12.2222V36.6667Z" fill="#1C92E0"/>
</svg>
