<svg width="22" height="22" viewBox="0 0 22 22" fill="none" xmlns="http://www.w3.org/2000/svg">
<path d="M8.24935 3.66675H4.58268C4.07642 3.66675 3.66602 4.07715 3.66602 4.58341V8.25008C3.66602 8.75634 4.07642 9.16675 4.58268 9.16675H8.24935C8.75561 9.16675 9.16602 8.75634 9.16602 8.25008V4.58341C9.16602 4.07715 8.75561 3.66675 8.24935 3.66675Z" stroke="#9DA1A3" stroke-width="1.25" stroke-linecap="round" stroke-linejoin="round"/>
<path d="M17.4173 3.66675H13.7507C13.2444 3.66675 12.834 4.07715 12.834 4.58341V8.25008C12.834 8.75634 13.2444 9.16675 13.7507 9.16675H17.4173C17.9236 9.16675 18.334 8.75634 18.334 8.25008V4.58341C18.334 4.07715 17.9236 3.66675 17.4173 3.66675Z" stroke="#9DA1A3" stroke-width="1.25" stroke-linecap="round" stroke-linejoin="round"/>
<path d="M8.24935 12.8333H4.58268C4.07642 12.8333 3.66602 13.2437 3.66602 13.7499V17.4166C3.66602 17.9228 4.07642 18.3333 4.58268 18.3333H8.24935C8.75561 18.3333 9.16602 17.9228 9.16602 17.4166V13.7499C9.16602 13.2437 8.75561 12.8333 8.24935 12.8333Z" stroke="#9DA1A3" stroke-width="1.25" stroke-linecap="round" stroke-linejoin="round"/>
<path d="M17.4173 12.8333H13.7507C13.2444 12.8333 12.834 13.2437 12.834 13.7499V17.4166C12.834 17.9228 13.2444 18.3333 13.7507 18.3333H17.4173C17.9236 18.3333 18.334 17.9228 18.334 17.4166V13.7499C18.334 13.2437 17.9236 12.8333 17.4173 12.8333Z" stroke="#9DA1A3" stroke-width="1.25" stroke-linecap="round" stroke-linejoin="round"/>
</svg>
