<svg width="104" height="40" viewBox="0 0 104 40" fill="none" xmlns="http://www.w3.org/2000/svg">
<path d="M12.2187 16.533L12.1959 17.5626C12.9052 17.677 13.6832 18.1804 13.6832 20.6516V27.3102C13.6832 29.9415 11.8298 31.017 9.88482 31.017C7.82548 31.017 6.06361 29.9415 6.06361 27.3102V19.233C6.06361 17.9745 6.84158 17.6313 7.5509 17.5626L7.45938 16.533H0.0915261L0 17.5626C0.709327 17.6313 1.4873 17.9745 1.4873 19.233V26.4864C1.4873 30.3992 3.54664 32.9619 8.71786 32.9619C13.6832 32.9619 15.9484 30.3992 15.9484 26.4864V20.4228C15.9484 18.2491 16.7264 17.677 17.4357 17.5626V16.533H12.2187Z" fill="white"/>
<path d="M28.8709 28.111C28.482 30.5822 26.1938 30.9254 23.3565 30.9254H22.9904L29.8091 20.9262V19.5076H18.6429L18.3454 23.5347H19.581C19.8785 21.4296 21.915 21.155 23.6997 21.1321H24.8896L18.231 30.8797V32.55H29.5803L30.1066 28.111H28.8709Z" fill="white"/>
<path d="M37.7059 24.5644C37.7059 21.155 39.5365 17.6999 42.5568 17.6999C43.8382 17.6999 44.5704 18.5923 44.5704 20.1253C44.5704 21.3381 45.4857 21.9559 46.4238 21.9559C47.3848 21.9559 48.3459 21.3152 48.3459 20.0338C48.3459 18.9813 47.7738 18.2262 46.9043 17.5397C45.6001 16.5101 43.6094 16.1211 41.3899 16.1211C36.5848 16.1211 32.7178 19.8965 32.7178 24.6101C32.7178 29.3008 36.5848 32.9619 41.3899 32.9619C44.3645 32.9619 47.2475 31.8178 48.9865 29.5754L47.8882 28.4542C46.7442 29.7127 44.8679 30.3534 42.717 30.2161C40.4975 30.0559 37.7059 28.2712 37.7059 24.5644Z" fill="#767779"/>
<path d="M57.681 31.5203V32.55H65.1404L65.0717 31.5203C64.3624 31.4059 63.5844 30.9025 63.5844 28.4313V23.9694C63.5844 20.2397 61.3192 19.0957 59.3285 19.0957C57.9098 19.0957 56.3539 19.7592 55.8047 20.9033V14.9312C54.775 14.4278 51.114 14.5194 49.7869 16.2584C50.4733 16.6702 51.3886 16.9448 51.3886 19.3702V28.4313C51.3886 30.9025 50.6106 31.4059 49.9013 31.5203L49.8326 32.55H57.292V31.5203C56.5827 31.4059 55.8047 30.9025 55.8047 28.4313V25.3881C55.8047 22.894 56.4683 21.0635 57.7267 21.0635C58.1844 21.0635 59.1683 21.5211 59.1683 23.9465V28.4313C59.1683 30.9025 58.3903 31.4059 57.681 31.5203Z" fill="#767779"/>
<path d="M78.032 29.2551C77.0938 30.3076 75.5379 30.8339 74.3252 30.7424C72.3573 30.6051 70.4811 29.0034 70.4124 26.8525C72.5404 27.2415 74.3023 27.0356 75.6294 26.6237C77.5286 26.0288 78.604 25.0449 78.8099 23.5576C79.1532 21.0406 76.6133 19.0499 72.6548 19.0499C68.6963 19.0499 65.4929 22.1847 65.4929 26.0745C65.4929 29.9644 68.6963 33.0992 72.6548 33.0992C75.126 33.0992 77.5057 32.0466 78.9472 30.1932L78.032 29.2551ZM73.7302 20.8804C74.8972 20.766 76.0413 21.7957 75.6294 23.2143C75.2404 24.5415 73.8675 25.8915 70.5497 25.2737C70.8472 23.0771 71.7167 21.0635 73.7302 20.8804Z" fill="#767779"/>
<path d="M85.003 31.2458C83.8818 31.2458 82.7377 30.7652 82.7377 29.8729C82.7377 29.3924 83.4699 29.1178 83.4699 28.5C83.4699 27.7678 82.7377 27.1271 81.708 27.1271C80.175 27.1271 79.5114 28.3856 79.5114 29.1864C79.5114 31.4517 82.0741 32.8017 85.3462 32.8017C89.4878 32.8017 91.2725 30.4678 91.2725 28.5457C91.2725 27.3788 90.6776 26.3949 89.4191 25.5483C86.6047 23.6033 83.9733 22.8025 83.9733 21.7728C83.9733 21.0177 84.8428 20.6058 85.8038 20.6058C86.8106 20.6058 87.7945 20.9948 87.6801 21.8414C87.3598 24.2669 91.181 24.1982 90.7462 21.6584C90.4945 20.2855 88.6411 19.2787 86.1242 19.2787C83.4013 19.2787 80.7699 20.194 80.1978 22.2762C79.786 23.6262 80.7241 24.8618 82.2572 25.8457C84.4081 27.1957 87.2454 28.294 87.2454 29.3924C87.2454 30.4678 86.4216 31.2458 85.003 31.2458Z" fill="#767779"/>
<path d="M97.3402 31.2458C96.219 31.2458 95.075 30.7652 95.075 29.8729C95.075 29.3924 95.8072 29.1178 95.8072 28.5C95.8072 27.7678 95.075 27.1271 94.0453 27.1271C92.5122 27.1271 91.8487 28.3856 91.8487 29.1864C91.8487 31.4517 94.4114 32.8017 97.6835 32.8017C101.825 32.8017 103.61 30.4678 103.61 28.5457C103.61 27.3788 103.015 26.3949 101.756 25.5483C98.9419 23.6033 96.3106 22.8025 96.3106 21.7728C96.3106 21.0177 97.1801 20.6058 98.1411 20.6058C99.1479 20.6058 100.132 20.9948 100.017 21.8414C99.697 24.2669 103.518 24.1982 103.083 21.6584C102.832 20.2855 100.978 19.2787 98.4614 19.2787C95.7385 19.2787 93.1071 20.194 92.5351 22.2762C92.1232 23.6262 93.0614 24.8618 94.5944 25.8457C96.7453 27.1957 99.5826 28.294 99.5826 29.3924C99.5826 30.4678 98.7589 31.2458 97.3402 31.2458Z" fill="#767779"/>
<g filter="url(#filter0_i_25915_167508)">
<path d="M28.7768 32.6031C28.1616 32.6031 27.7241 31.9944 27.9106 31.398L29.0851 27.6427C29.4573 26.453 30.1521 25.3943 31.0898 24.5888C31.1327 24.5362 31.1726 24.4795 31.2102 24.4194C31.3043 24.2699 31.3179 23.9572 31.2235 23.7941C30.9406 23.3183 30.6175 22.8561 30.2675 22.4075C30.1027 22.208 29.9284 22.0183 29.7523 21.8288C29.5683 21.6309 29.3825 21.4332 29.2034 21.2248C28.8534 20.817 28.8939 20.6675 29.217 20.246C29.3922 20.0149 29.5132 19.6751 29.5132 19.3896C29.5268 18.4244 29.1632 17.5272 28.7862 16.6572C28.6111 16.2494 29.0286 15.5697 29.473 15.5697H30.806L30.8208 15.5425C30.8344 15.5185 30.8504 15.4897 30.8598 15.4609C29.9171 14.7404 29.3653 13.816 29.4863 12.5926C29.5538 11.94 29.7423 11.3283 30.1192 10.7166C30.6983 11.2331 31.2371 11.7225 31.7756 12.2119C31.9008 12.3305 31.9943 12.3709 32.0848 12.3413C32.1502 12.3199 32.2142 12.2622 32.2872 12.1712C32.4491 11.9808 32.4222 11.8857 32.247 11.7361C31.8508 11.3875 31.47 11.0311 31.0815 10.6787C30.9548 10.5639 30.8273 10.4495 30.6983 10.3359C30.4962 10.1592 30.4829 10.0233 30.658 9.83296C30.9676 9.47953 31.2504 9.09889 31.5735 8.74542C31.7082 8.59589 31.7756 8.48715 31.6949 8.26963C31.5333 7.84824 31.6679 7.4676 32.0449 7.19571C32.4355 6.92382 33.0145 6.9374 33.4051 7.22288C33.7418 7.48119 33.8629 7.86182 33.7013 8.28325C33.6205 8.48715 33.688 8.58231 33.8226 8.71826C34.6171 9.57469 35.3172 10.4855 35.7078 11.6138C36.206 13.0412 35.8693 14.2782 34.7381 15.2842C34.7065 15.3098 34.6778 15.3383 34.6523 15.3769C34.6233 15.4205 34.5982 15.4768 34.5766 15.5561H35.6539C36.1389 15.5561 36.5022 15.7872 36.6774 16.2494C36.7179 16.3445 36.6641 16.4805 36.6236 16.5892C36.3812 17.3505 36.0983 18.1118 35.9099 18.8866C35.7752 19.444 35.8155 20.0013 36.3407 20.4228C36.6099 20.6403 36.4081 20.9393 36.2466 21.1432C36.1016 21.326 35.9451 21.493 35.7894 21.659C35.6557 21.8019 35.5225 21.944 35.398 22.0948C35.3187 22.1916 35.2382 22.2878 35.1574 22.3842C34.8417 22.7614 34.5245 23.1406 34.2671 23.563C34.0135 23.961 34.0348 24.3259 34.2898 24.5888C35.2209 25.3946 35.9111 26.45 36.2817 27.635L37.4586 31.398C37.6451 31.9944 37.2076 32.6031 36.5924 32.6031H28.7768Z" fill="#1C92E0"/>
</g>
<path fill-rule="evenodd" clip-rule="evenodd" d="M36.2786 21.1971C36.1332 21.3802 35.9764 21.5476 35.8204 21.714L35.8178 21.7168C35.6842 21.8595 35.5512 22.0016 35.4267 22.1523C35.3471 22.2494 35.2663 22.346 35.1852 22.4427C34.8683 22.8214 34.5499 23.202 34.2915 23.626C34.037 24.0255 34.0583 24.3918 34.3144 24.6557C35.249 25.4645 35.9418 26.524 36.3138 27.7136L37.4952 31.4908C37.6824 32.0894 37.2433 32.7005 36.6257 32.7005H28.7804C28.1628 32.7005 27.7236 32.0894 27.9109 31.4908L29.0899 27.7212C29.4634 26.527 30.1609 25.4643 31.1021 24.6557C31.1452 24.603 31.1853 24.546 31.223 24.4857C31.3175 24.3356 31.3311 24.0217 31.2364 23.858C30.9524 23.3804 30.6281 22.9164 30.2767 22.4661C30.1113 22.2659 29.9363 22.0754 29.7596 21.8852C29.7402 21.8644 29.7209 21.8436 29.7015 21.8228C29.5359 21.6449 29.3695 21.4662 29.2086 21.2789C28.8572 20.8696 28.8979 20.7195 29.2223 20.2964C29.3981 20.0644 29.5196 19.7233 29.5196 19.4367C29.5333 18.4679 29.1682 17.5673 28.7898 16.6939C28.6328 16.3283 28.9503 15.745 29.3378 15.6245C29.3842 15.6101 29.4315 15.6023 29.4792 15.6023H30.8173L30.8321 15.575C30.8458 15.5509 30.8618 15.522 30.8713 15.4931C30.8532 15.4792 30.8351 15.4653 30.8173 15.4512C30.4393 15.1545 30.1269 14.8237 29.899 14.4525C29.5761 13.9268 29.4227 13.3199 29.4926 12.6139C29.52 12.3488 29.5673 12.0904 29.639 11.836C29.7031 11.6083 29.7868 11.3839 29.8932 11.1607C29.9617 11.017 30.0397 10.8739 30.1279 10.7307C30.1738 10.7717 30.2195 10.8125 30.265 10.8532C30.2656 10.8537 30.2661 10.8542 30.2667 10.8547C30.3933 10.968 30.5181 11.08 30.6416 11.1911C30.6415 11.1911 30.6417 11.1912 30.6416 11.1911C30.7628 11.3002 30.8828 11.4085 31.0017 11.5161C31.0963 11.6017 31.1904 11.6868 31.284 11.7718C31.3005 11.6958 31.3239 11.6318 31.3467 11.5824C31.3704 11.5309 31.3934 11.4947 31.4067 11.4751C31.4074 11.4741 31.4081 11.4731 31.4087 11.4722C31.4108 11.4692 31.4127 11.4665 31.4144 11.4641C31.4187 11.4597 31.4241 11.4543 31.4307 11.4481C31.4369 11.4423 31.4441 11.4358 31.4522 11.4288C31.493 11.3939 31.5855 11.3232 31.7293 11.2736C31.6472 11.1987 31.5653 11.1236 31.4834 11.0486C31.3538 10.9298 31.2242 10.811 31.0938 10.6927C30.9667 10.5774 30.8387 10.4626 30.7092 10.3486C30.6556 10.3018 30.6152 10.2578 30.5881 10.2149C30.5124 10.0954 30.5394 9.98434 30.6688 9.84375C30.6968 9.81171 30.7247 9.77945 30.7523 9.747C30.8592 9.62176 30.9635 9.49379 31.0681 9.36542C31.2365 9.15881 31.4058 8.95115 31.5877 8.75208C31.7229 8.60198 31.7906 8.49282 31.7095 8.27447C31.5473 7.85148 31.6825 7.4694 32.0609 7.19647C32.453 6.92354 33.0342 6.93718 33.4263 7.22374C33.7643 7.48303 33.8858 7.86512 33.7236 8.28815C33.6425 8.49282 33.7102 8.58834 33.8454 8.72481C34.6429 9.5845 35.3456 10.4988 35.7377 11.6313C36.1015 12.6735 36.0219 13.6146 35.5145 14.4389C35.3243 14.7478 35.0739 15.0404 34.7644 15.3157C34.7326 15.3414 34.7038 15.37 34.6782 15.4088C34.6491 15.4525 34.6239 15.5091 34.6022 15.5886H35.6836C35.817 15.5886 35.9411 15.606 36.0548 15.6408C36.3561 15.7331 36.5833 15.9477 36.711 16.2846C36.7502 16.3764 36.7016 16.5062 36.6617 16.6131C36.6601 16.6173 36.6585 16.6215 36.657 16.6257C36.5862 16.8478 36.5121 17.07 36.4378 17.2924C36.2566 17.8353 36.0748 18.3801 35.9405 18.9319C35.8054 19.4914 35.8458 20.0508 36.373 20.4738C36.6433 20.6922 36.4407 20.9924 36.2786 21.1971ZM37.058 19.2026C37.0148 19.3818 37.0232 19.4708 37.0301 19.5016C37.0327 19.5131 37.0351 19.5176 37.0376 19.5215C37.0403 19.5257 37.0532 19.5455 37.0926 19.5771L37.0955 19.5795C37.3265 19.766 37.5189 20.0261 37.6063 20.3549C37.6903 20.6713 37.6518 20.9555 37.5921 21.161C37.487 21.5235 37.2648 21.8038 37.1828 21.9072L37.1792 21.9117C37.0042 22.1323 36.8198 22.329 36.6706 22.4882L36.6589 22.5007C36.6588 22.5008 36.659 22.5006 36.6589 22.5007C36.5211 22.6478 36.4125 22.7643 36.3145 22.8829C36.231 22.9847 36.1473 23.0848 36.0666 23.181C35.7917 23.5095 35.5627 23.7856 35.374 24.067C36.3164 24.9755 37.0175 26.1118 37.4111 27.3703L38.5925 31.1476C39.0031 32.4603 38.0464 33.8502 36.6257 33.8502H28.7804C27.3597 33.8502 26.403 32.4603 26.8136 31.1476L27.9925 27.378C28.385 26.123 29.0839 24.9901 30.023 24.084C29.8268 23.7825 29.6115 23.4833 29.3803 23.1864C29.241 23.0186 29.0896 22.8532 28.9176 22.6682M35.2454 24.2717C35.2454 24.2717 35.2456 24.2712 35.246 24.2704L35.2454 24.2717ZM37.058 19.2026C37.1803 18.7 37.3385 18.2263 37.5124 17.7054C37.587 17.4823 37.6644 17.2505 37.7431 17.0041C37.763 16.9512 37.8073 16.8304 37.8359 16.7039C37.8658 16.5716 37.9291 16.2356 37.7807 15.863C37.6187 15.4431 37.3463 15.069 36.9516 14.8059C36.8702 14.7516 36.7867 14.7041 36.7016 14.6629C36.8154 14.4286 36.9074 14.1836 36.9755 13.9279C37.2082 13.0535 37.1356 12.1481 36.8237 11.2538C36.3989 10.0274 35.6798 9.04814 34.9255 8.20332C34.9625 7.93214 34.9472 7.65194 34.8669 7.37479C34.7371 6.92627 34.4614 6.56871 34.1261 6.31149L34.1155 6.30337L34.1047 6.2955C33.331 5.72995 32.2134 5.68939 31.404 6.25284L31.3961 6.25834L31.3883 6.26396C31.046 6.51086 30.7438 6.85918 30.5917 7.31573C30.4898 7.62149 30.47 7.93205 30.515 8.23067C30.4148 8.34813 30.3204 8.46313 30.2324 8.5709C30.2134 8.59415 30.1948 8.61699 30.1765 8.63947C30.0764 8.76224 29.9851 8.87419 29.8941 8.98141L29.8691 8.95906L29.7588 9.13801C29.6771 9.23599 29.5778 9.3752 29.5039 9.55177L29.1491 10.1275C28.6729 10.9003 28.433 11.6826 28.3489 12.4956L28.3484 12.5007C28.2681 13.3122 28.4075 14.0264 28.7002 14.6487C28.333 14.8445 28.0736 15.1494 27.9262 15.3853C27.6871 15.768 27.4357 16.4545 27.7334 17.1477L27.7348 17.151C28.1204 18.0408 28.3797 18.7297 28.37 19.4205L28.3698 19.4286V19.4335C28.3697 19.4353 28.3691 19.4404 28.3675 19.4488C28.3647 19.4643 28.3594 19.4849 28.3512 19.5084C28.3431 19.5319 28.3335 19.5536 28.324 19.5718C28.3154 19.5884 28.3089 19.5979 28.3066 19.601C28.3017 19.6074 28.2965 19.6142 28.2909 19.6214C28.1558 19.7961 27.8392 20.2057 27.8136 20.7377C27.7833 21.3696 28.156 21.8179 28.3361 22.0278C28.513 22.2336 28.6959 22.43 28.8597 22.606C28.8792 22.6269 28.8987 22.6479 28.9176 22.6682M32.2638 11.7542C32.4396 11.9043 32.4666 11.9998 32.3041 12.1908C32.2308 12.2822 32.1666 12.3402 32.101 12.3616C32.0192 12.3884 31.935 12.3582 31.8275 12.2652C31.825 12.2631 31.8224 12.2608 31.8199 12.2586C31.8103 12.2501 31.8006 12.2412 31.7906 12.2318" fill="#171C1E"/>
<g filter="url(#filter1_di_25915_167508)">
<path d="M28.7803 32.7004C28.1627 32.7004 27.7236 32.0894 27.9108 31.4908L29.0898 27.7212C29.4633 26.527 30.1608 25.4643 31.102 24.6557C31.1451 24.6029 31.1852 24.5459 31.2229 24.4857C31.3174 24.3356 31.331 24.0217 31.2363 23.858C30.9523 23.3804 30.628 22.9164 30.2766 22.4661C30.1112 22.2659 29.9362 22.0754 29.7595 21.8852C29.5747 21.6865 29.3882 21.4881 29.2085 21.2789C28.8571 20.8695 28.8978 20.7194 29.2222 20.2964C29.398 20.0644 29.5195 19.7233 29.5195 19.4367C29.5332 18.4679 29.1681 17.5673 28.7897 16.6939C28.6139 16.2846 29.033 15.6023 29.4791 15.6023H30.8172L30.832 15.575C30.8457 15.5509 30.8617 15.522 30.8712 15.4931C29.9249 14.7699 29.371 13.842 29.4925 12.6139C29.5602 11.9588 29.7494 11.3448 30.1278 10.7307C30.7091 11.2492 31.2499 11.7405 31.7905 12.2318C31.9161 12.3507 32.01 12.3913 32.1009 12.3616C32.1665 12.3402 32.2307 12.2822 32.304 12.1908C32.4665 11.9998 32.4395 11.9043 32.2637 11.7542C31.8659 11.4042 31.4837 11.0465 31.0937 10.6927C30.9666 10.5774 30.8386 10.4626 30.7091 10.3486C30.5062 10.1712 30.4928 10.0348 30.6687 9.84374C30.9793 9.48896 31.2633 9.10688 31.5876 8.75206C31.7228 8.60196 31.7905 8.49281 31.7094 8.27446C31.5472 7.85147 31.6824 7.46938 32.0608 7.19645C32.4529 6.92353 33.0341 6.93716 33.4262 7.22372C33.7642 7.48302 33.8857 7.8651 33.7235 8.28813C33.6424 8.49281 33.7101 8.58833 33.8453 8.72479C34.6428 9.58448 35.3455 10.4988 35.7376 11.6313C36.2378 13.0641 35.8998 14.3059 34.7643 15.3157C34.7325 15.3414 34.7037 15.37 34.6781 15.4088C34.649 15.4525 34.6238 15.5091 34.6021 15.5886H35.6835C36.1703 15.5886 36.5351 15.8206 36.7109 16.2846C36.7516 16.3801 36.6976 16.5165 36.6569 16.6257C36.4136 17.3899 36.1297 18.154 35.9404 18.9318C35.8053 19.4913 35.8457 20.0508 36.3729 20.4738C36.6432 20.6922 36.4406 20.9924 36.2785 21.197C36.1329 21.3805 35.9758 21.5481 35.8196 21.7148C35.6853 21.8582 35.5517 22.0008 35.4266 22.1523C35.347 22.2494 35.2662 22.346 35.1851 22.4427C34.8682 22.8214 34.5498 23.202 34.2914 23.626C34.0369 24.0255 34.0582 24.3918 34.3143 24.6557C35.2489 25.4645 35.9417 26.524 36.3137 27.7135L37.4951 31.4908C37.6823 32.0894 37.2432 32.7004 36.6256 32.7004H28.7803Z" fill="#1C92E0"/>
</g>
<defs>
<filter id="filter0_i_25915_167508" x="27.8672" y="7" width="9.63477" height="25.603" filterUnits="userSpaceOnUse" color-interpolation-filters="sRGB">
<feFlood flood-opacity="0" result="BackgroundImageFix"/>
<feBlend mode="normal" in="SourceGraphic" in2="BackgroundImageFix" result="shape"/>
<feColorMatrix in="SourceAlpha" type="matrix" values="0 0 0 0 0 0 0 0 0 0 0 0 0 0 0 0 0 0 127 0" result="hardAlpha"/>
<feOffset dx="-1.5"/>
<feComposite in2="hardAlpha" operator="arithmetic" k2="-1" k3="1"/>
<feColorMatrix type="matrix" values="0 0 0 0 0 0 0 0 0 0 0 0 0 0 0 0 0 0 0.18 0"/>
<feBlend mode="normal" in2="shape" result="effect1_innerShadow_25915_167508"/>
</filter>
<filter id="filter1_di_25915_167508" x="22.8672" y="0" width="23.6719" height="39.7004" filterUnits="userSpaceOnUse" color-interpolation-filters="sRGB">
<feFlood flood-opacity="0" result="BackgroundImageFix"/>
<feColorMatrix in="SourceAlpha" type="matrix" values="0 0 0 0 0 0 0 0 0 0 0 0 0 0 0 0 0 0 127 0" result="hardAlpha"/>
<feOffset dx="2"/>
<feGaussianBlur stdDeviation="3.5"/>
<feComposite in2="hardAlpha" operator="out"/>
<feColorMatrix type="matrix" values="0 0 0 0 0.0431373 0 0 0 0 0.0784314 0 0 0 0 0.0941176 0 0 0 0.5 0"/>
<feBlend mode="normal" in2="BackgroundImageFix" result="effect1_dropShadow_25915_167508"/>
<feBlend mode="normal" in="SourceGraphic" in2="effect1_dropShadow_25915_167508" result="shape"/>
<feColorMatrix in="SourceAlpha" type="matrix" values="0 0 0 0 0 0 0 0 0 0 0 0 0 0 0 0 0 0 127 0" result="hardAlpha"/>
<feOffset dx="-1.5"/>
<feComposite in2="hardAlpha" operator="arithmetic" k2="-1" k3="1"/>
<feColorMatrix type="matrix" values="0 0 0 0 0 0 0 0 0 0 0 0 0 0 0 0 0 0 0.18 0"/>
<feBlend mode="normal" in2="shape" result="effect2_innerShadow_25915_167508"/>
</filter>
</defs>
</svg>
