<svg width="14" height="14" viewBox="0 0 14 14" fill="none" xmlns="http://www.w3.org/2000/svg">
<path d="M8.25 7C8.66421 7 9 6.66421 9 6.25C9 5.83579 8.66421 5.5 8.25 5.5C7.83579 5.5 7.5 5.83579 7.5 6.25C7.5 6.66421 7.83579 7 8.25 7Z" fill="#F7F9FA" fill-opacity="0.6"/>
<path d="M10.75 7C11.1642 7 11.5 6.66421 11.5 6.25C11.5 5.83579 11.1642 5.5 10.75 5.5C10.3358 5.5 10 5.83579 10 6.25C10 6.66421 10.3358 7 10.75 7Z" fill="#F7F9FA" fill-opacity="0.6"/>
<path d="M8.25 9.5C8.66421 9.5 9 9.16421 9 8.75C9 8.33579 8.66421 8 8.25 8C7.83579 8 7.5 8.33579 7.5 8.75C7.5 9.16421 7.83579 9.5 8.25 9.5Z" fill="#F7F9FA" fill-opacity="0.6"/>
<path d="M10.75 9.5C11.1642 9.5 11.5 9.16421 11.5 8.75C11.5 8.33579 11.1642 8 10.75 8C10.3358 8 10 8.33579 10 8.75C10 9.16421 10.3358 9.5 10.75 9.5Z" fill="#F7F9FA" fill-opacity="0.6"/>
<path d="M3.25 9.5C3.66421 9.5 4 9.16421 4 8.75C4 8.33579 3.66421 8 3.25 8C2.83579 8 2.5 8.33579 2.5 8.75C2.5 9.16421 2.83579 9.5 3.25 9.5Z" fill="#F7F9FA" fill-opacity="0.6"/>
<path d="M5.75 9.5C6.16421 9.5 6.5 9.16421 6.5 8.75C6.5 8.33579 6.16421 8 5.75 8C5.33579 8 5 8.33579 5 8.75C5 9.16421 5.33579 9.5 5.75 9.5Z" fill="#F7F9FA" fill-opacity="0.6"/>
<path d="M3.25 12C3.66421 12 4 11.6642 4 11.25C4 10.8358 3.66421 10.5 3.25 10.5C2.83579 10.5 2.5 10.8358 2.5 11.25C2.5 11.6642 2.83579 12 3.25 12Z" fill="#F7F9FA" fill-opacity="0.6"/>
<path d="M5.75 12C6.16421 12 6.5 11.6642 6.5 11.25C6.5 10.8358 6.16421 10.5 5.75 10.5C5.33579 10.5 5 10.8358 5 11.25C5 11.6642 5.33579 12 5.75 12Z" fill="#F7F9FA" fill-opacity="0.6"/>
<path d="M8.25 12C8.66421 12 9 11.6642 9 11.25C9 10.8358 8.66421 10.5 8.25 10.5C7.83579 10.5 7.5 10.8358 7.5 11.25C7.5 11.6642 7.83579 12 8.25 12Z" fill="#F7F9FA" fill-opacity="0.6"/>
<path fill-rule="evenodd" clip-rule="evenodd" d="M3.5 0.5C3.5 0.223858 3.27614 0 3 0C2.72386 0 2.5 0.223858 2.5 0.5V1H2C0.895431 1 0 1.89543 0 3V12C0 13.1046 0.895431 14 2 14H12C13.1046 14 14 13.1046 14 12V3C14 1.89543 13.1046 1 12 1H11.5V0.5C11.5 0.223858 11.2761 0 11 0C10.7239 0 10.5 0.223858 10.5 0.5V1H3.5V0.5ZM2 4.5C1.5 4.5 1 5 1 5.5V12C1 12.5523 1.44772 13 2 13H12C12.5523 13 13 12.5523 13 12V5.5C13 5 12.5 4.5 12 4.5H2ZM9 6.25C9 6.66421 8.66421 7 8.25 7C7.83579 7 7.5 6.66421 7.5 6.25C7.5 5.83579 7.83579 5.5 8.25 5.5C8.66421 5.5 9 5.83579 9 6.25ZM11.5 6.25C11.5 6.66421 11.1642 7 10.75 7C10.3358 7 10 6.66421 10 6.25C10 5.83579 10.3358 5.5 10.75 5.5C11.1642 5.5 11.5 5.83579 11.5 6.25ZM9 8.75C9 9.16421 8.66421 9.5 8.25 9.5C7.83579 9.5 7.5 9.16421 7.5 8.75C7.5 8.33579 7.83579 8 8.25 8C8.66421 8 9 8.33579 9 8.75ZM11.5 8.75C11.5 9.16421 11.1642 9.5 10.75 9.5C10.3358 9.5 10 9.16421 10 8.75C10 8.33579 10.3358 8 10.75 8C11.1642 8 11.5 8.33579 11.5 8.75ZM4 8.75C4 9.16421 3.66421 9.5 3.25 9.5C2.83579 9.5 2.5 9.16421 2.5 8.75C2.5 8.33579 2.83579 8 3.25 8C3.66421 8 4 8.33579 4 8.75ZM6.5 8.75C6.5 9.16421 6.16421 9.5 5.75 9.5C5.33579 9.5 5 9.16421 5 8.75C5 8.33579 5.33579 8 5.75 8C6.16421 8 6.5 8.33579 6.5 8.75ZM4 11.25C4 11.6642 3.66421 12 3.25 12C2.83579 12 2.5 11.6642 2.5 11.25C2.5 10.8358 2.83579 10.5 3.25 10.5C3.66421 10.5 4 10.8358 4 11.25ZM6.5 11.25C6.5 11.6642 6.16421 12 5.75 12C5.33579 12 5 11.6642 5 11.25C5 10.8358 5.33579 10.5 5.75 10.5C6.16421 10.5 6.5 10.8358 6.5 11.25ZM9 11.25C9 11.6642 8.66421 12 8.25 12C7.83579 12 7.5 11.6642 7.5 11.25C7.5 10.8358 7.83579 10.5 8.25 10.5C8.66421 10.5 9 10.8358 9 11.25Z" fill="#F7F9FA" fill-opacity="0.6"/>
</svg>
