<svg width="20" height="18" viewBox="0 0 20 18" fill="none" xmlns="http://www.w3.org/2000/svg">
<path d="M9.70302 18C9.1202 18 8.65962 17.5367 8.18243 17.2021C4.01545 14.28 -0.0915315 10.5893 0.00301702 5.2C-0.096983 2.4 2.30302 0 5.10302 0C7.40302 0 8.90302 1.4 9.70302 2.4C10.403 1.4 11.903 0 14.203 0C17.003 0 19.403 2.4 19.403 5.3C19.4867 9.985 13.2011 15.5799 11.1449 17.2831C10.7216 17.6337 10.2526 18 9.70302 18ZM5.10302 1.5C3.10302 1.5 1.40302 3.2 1.40302 5.3C1.40302 10.2 5.50302 13.7 9.60302 16.5C14.203 13.1906 17.909 8.68025 17.909 5.3C17.909 3.2 16.203 1.5 14.203 1.5C11.703 1.5 10.303 4.1 10.303 4.1C10.203 4.3 9.90302 4.5 9.60302 4.5C9.0585 4.5 8.78615 3.84525 8.46063 3.40875C7.88621 2.63851 6.75735 1.5 5.10302 1.5Z" fill="#F7F9FA"/>
</svg>
