<svg width="302" height="204" viewBox="0 0 302 204" fill="none" xmlns="http://www.w3.org/2000/svg">
<path d="M152.364 184.288C203.003 184.288 244.264 143.198 244.264 92.7294C244.093 42.0907 203.003 1 152.364 1C101.555 1 60.4639 42.0907 60.4639 92.5589C60.4639 143.198 101.555 184.288 152.364 184.288Z" fill="#17191B" stroke="#181A1D" stroke-width="2" stroke-miterlimit="10"/>
<path d="M249.719 104.323C249.719 123.931 233.862 139.787 214.084 139.787C213.743 139.787 210.844 139.787 189.532 139.787C174.698 139.787 150.999 139.787 113.147 139.787H95.0744C71.3748 140.299 52.4492 121.373 52.4492 98.526C52.4492 75.5084 71.5453 56.4123 95.5859 57.6058C116.217 -6.84347 210.674 2.19307 218.687 68.8589C236.42 71.0754 249.719 86.0795 249.719 104.323Z" fill="#757778" stroke="#3A3E42" stroke-width="2" stroke-miterlimit="10"/>
<path d="M218.176 69.0304C216.812 68.8599 215.448 68.8599 214.084 68.8599C207.093 68.8599 200.444 70.9059 194.817 74.4864" fill="#252729"/>
<path d="M218.176 69.0304C216.812 68.8599 215.448 68.8599 214.084 68.8599C207.093 68.8599 200.444 70.9059 194.817 74.4864" stroke="#3A3E42" stroke-width="2" stroke-miterlimit="10" stroke-linecap="round"/>
<path d="M96.1104 58C93.4437 64.075 92.1104 70.4875 92.1104 77.2375C92.1104 79.9375 92.3326 82.4688 92.777 85" fill="#75777C"/>
<path d="M96.1104 58C93.4437 64.075 92.1104 70.4875 92.1104 77.2375C92.1104 79.9375 92.3326 82.4688 92.777 85" stroke="#3A3E42" stroke-width="2" stroke-miterlimit="10" stroke-linecap="round" stroke-linejoin="round"/>
<path d="M133.796 97.6489C136.481 97.6489 138.753 95.3771 138.753 92.6924C138.753 90.0076 136.481 87.7358 133.796 87.7358C131.112 87.7358 128.84 90.0076 128.84 92.6924C128.84 95.3771 131.112 97.6489 133.796 97.6489Z" fill="#111315"/>
<path d="M171.796 97.6489C174.481 97.6489 176.753 95.3771 176.753 92.6924C176.753 90.0076 174.481 87.7358 171.796 87.7358C169.112 87.7358 166.84 90.0076 166.84 92.6924C166.84 95.5837 169.112 97.6489 171.796 97.6489Z" fill="#111315"/>
<path d="M133.602 76.2949L122.699 82.182L124.171 84.9078L135.074 79.0207L133.602 76.2949Z" fill="#111315"/>
<path d="M171.122 76.2158L169.65 78.9419L180.555 84.8277L182.026 82.1017L171.122 76.2158Z" fill="#111315"/>
<path d="M152.796 109.215C155.99 109.215 158.579 107.273 158.579 104.878C158.579 102.483 155.99 100.541 152.796 100.541C149.603 100.541 147.014 102.483 147.014 104.878C147.014 107.273 149.603 109.215 152.796 109.215Z" fill="#111315"/>
<path d="M31.2642 25.4854C31.2642 25.4854 7.43069 31.5366 14.653 36.3776C21.8753 40.9766 38.968 48.9642 55.0978 43.6391C71.2275 38.314 55.0978 30.8105 55.3385 30.8105C55.5792 30.8105 31.2642 25.4854 31.2642 25.4854Z" fill="#252729" stroke="#3A3E42" stroke-width="2" stroke-miterlimit="10"/>
<path d="M2.13379 23.549C10.8005 26.2115 37.523 21.8546 54.6157 10.7203C68.0973 27.4218 73.1529 31.7787 77.9678 32.2628C70.5047 39.7663 45.7082 51.8688 31.7451 36.1356C15.3746 46.5437 2.13379 23.549 2.13379 23.549Z" fill="#252729" stroke="#3A3E42" stroke-width="2" stroke-miterlimit="10"/>
<path d="M223.903 84.0709C233.052 84.555 257.848 73.4207 271.33 58.4136C288.663 71.2422 294.441 74.1468 299.497 73.4207C293.959 82.6186 277.107 102.709 253.274 104.161C235.94 93.9949 223.903 84.0709 223.903 84.0709Z" fill="#252729" stroke="#3A3E42" stroke-width="2" stroke-miterlimit="10"/>
<path d="M150.875 197.609C149.065 188.628 132.105 167.387 114.213 158.069C122.319 138.086 123.693 131.767 121.73 127.051C132.018 130.123 155.672 141.439 163.016 164.16C157.488 183.479 150.875 197.609 150.875 197.609Z" fill="#252729" stroke="#3A3E42" stroke-width="2" stroke-miterlimit="10"/>
</svg>
