<svg width="16" height="14" viewBox="0 0 16 14" fill="none" xmlns="http://www.w3.org/2000/svg">
<path d="M7.93333 12.8L7.53333 13.2667L7.13333 12.8C6.4 11.8667 5.13333 11 1 11C0.4 11 0 10.5333 0 9.93333V1C0 0.866667 0 0.733333 0.0666667 0.6C0.133333 0.466667 0.2 0.4 0.266667 0.266667C0.333333 0.2 0.466667 0.133333 0.6 0.0666667C0.8 0 0.933333 0 1.06667 0C4.53333 0 6.6 0.733333 7.53333 2.2C8.53333 0.733333 10.6 0 14.0667 0C14.2 0 14.3333 0 14.4667 0.0666667C14.6 0.133333 14.6667 0.2 14.8 0.266667C14.8667 0.333333 15 0.466667 15 0.6C15.0667 0.733333 15.0667 0.866667 15.0667 1V10C15.0667 10.2667 14.9333 10.5333 14.8 10.7333C14.6 10.9333 14.3333 11 14.0667 11C10 11 8.73333 11.8667 7.93333 12.8ZM8.06667 3.53333V11.3333C9.33333 10.4 11.2 10 14.0667 10V1C9.4 1 8.4 2.4 8.06667 3.53333ZM1.2 10C4 10 5.86667 10.4 7.06667 11.3333V3.53333C6.73333 2.33333 5.73333 1 1.06667 1V9.93333C1.06667 10 1.06667 10 1.06667 10C1.13333 10 1.13333 10 1.2 10Z" fill="#F7F9FA" fill-opacity="0.6"/>
</svg>
