<svg width="24" height="24" viewBox="0 0 24 24" fill="none" xmlns="http://www.w3.org/2000/svg">
<path fill-rule="evenodd" clip-rule="evenodd" d="M18 4C17.3096 4 16.75 4.55964 16.75 5.25C16.75 5.464 16.8038 5.66544 16.8986 5.84154C16.9027 5.84853 16.9068 5.85559 16.9108 5.86271C16.9146 5.86949 16.9183 5.8763 16.922 5.88313C17.1392 6.25227 17.5407 6.5 18 6.5C18.6904 6.5 19.25 5.94036 19.25 5.25C19.25 4.55964 18.6904 4 18 4ZM15.7951 7.63765C16.3744 8.17293 17.149 8.5 18 8.5C19.7949 8.5 21.25 7.04493 21.25 5.25C21.25 3.45507 19.7949 2 18 2C16.2051 2 14.75 3.45507 14.75 5.25C14.75 5.47077 14.772 5.68641 14.814 5.89482L8.20494 9.61235C7.62558 9.07707 6.85098 8.75 6 8.75C4.20507 8.75 2.75 10.2051 2.75 12C2.75 13.7949 4.20507 15.25 6 15.25C6.85099 15.25 7.62558 14.9229 8.20494 14.3876L14.814 18.1052C14.772 18.3136 14.75 18.5292 14.75 18.75C14.75 20.5449 16.2051 22 18 22C19.7949 22 21.25 20.5449 21.25 18.75C21.25 16.9551 19.7949 15.5 18 15.5C17.149 15.5 16.3744 15.8271 15.7951 16.3624L9.18604 12.6448C9.22799 12.4364 9.25 12.2208 9.25 12C9.25 11.7792 9.22799 11.5636 9.18604 11.3552L15.7951 7.63765ZM7.07802 11.3669C7.08166 11.3737 7.08539 11.3805 7.0892 11.3873C7.09321 11.3944 7.09729 11.4015 7.10145 11.4085C7.19622 11.5846 7.25 11.786 7.25 12C7.25 12.214 7.19622 12.4154 7.10145 12.5915C7.09729 12.5985 7.09321 12.6056 7.0892 12.6127C7.08539 12.6195 7.08166 12.6263 7.07802 12.6331C6.86076 13.0023 6.45931 13.25 6 13.25C5.30964 13.25 4.75 12.6904 4.75 12C4.75 11.3096 5.30964 10.75 6 10.75C6.45931 10.75 6.86076 10.9977 7.07802 11.3669ZM16.8986 18.1585C16.9027 18.1515 16.9068 18.1444 16.9108 18.1373C16.9146 18.1305 16.9183 18.1237 16.922 18.1169C17.1392 17.7477 17.5407 17.5 18 17.5C18.6904 17.5 19.25 18.0596 19.25 18.75C19.25 19.4404 18.6904 20 18 20C17.3096 20 16.75 19.4404 16.75 18.75C16.75 18.536 16.8038 18.3346 16.8986 18.1585Z" fill="#F7F9FA"/>
</svg>
