<svg width="13" height="12" viewBox="0 0 13 12" fill="none" xmlns="http://www.w3.org/2000/svg">
<path d="M5.81962 0.143886C5.91914 -0.0479039 6.19349 -0.0479036 6.29301 0.143886L8.01294 3.45839C8.05161 3.53292 8.12313 3.58488 8.20597 3.59863L11.8897 4.21014C12.1029 4.24553 12.1877 4.50645 12.036 4.66036L9.41523 7.32035C9.3563 7.38016 9.32898 7.46424 9.3415 7.54727L9.89826 11.2397C9.93048 11.4534 9.70852 11.6146 9.51528 11.518L6.17561 9.84742C6.10052 9.80985 6.01211 9.80985 5.93702 9.84742L2.59735 11.518C2.40411 11.6146 2.18215 11.4534 2.21437 11.2397L2.77113 7.54727C2.78365 7.46424 2.75633 7.38016 2.6974 7.32035L0.0766115 4.66036C-0.0750376 4.50645 0.00974137 4.24553 0.222898 4.21014L3.90666 3.59863C3.9895 3.58488 4.06102 3.53292 4.09969 3.45839L5.81962 0.143886Z" fill="#E0B531"/>
</svg>
