<svg width="12" height="15" viewBox="0 0 12 15" fill="none" xmlns="http://www.w3.org/2000/svg">
<path fill-rule="evenodd" clip-rule="evenodd" d="M10.6615 9.58791L10.5922 9.5483C10.2102 9.33003 9.60807 8.90511 9.1227 8.39478L9.10499 8.37606C9.37518 8.13205 9.54497 7.77898 9.54497 7.38624V5.9393C9.54497 5.50607 9.33449 5.09985 8.98055 4.85001L8.90095 4.79382C9.05028 4.40254 9.13227 3.97785 9.13227 3.53439C9.13227 1.5824 7.54987 0 5.59788 0C3.64589 0 2.06349 1.5824 2.06349 3.53439C2.06349 4.00697 2.15656 4.45809 2.32497 4.87019C1.98785 5.12138 1.78836 5.51754 1.78836 5.9393V7.38624C1.78836 7.77898 1.95816 8.13205 2.22834 8.37606L2.21063 8.39478C1.72526 8.90511 1.12311 9.33002 0.741128 9.5483L0.671811 9.58791C0.25638 9.8253 0 10.2671 0 10.7456V12.8889C0 13.6253 0.596954 14.2222 1.33333 14.2222H10C10.7364 14.2222 11.3333 13.6253 11.3333 12.8889V10.7456C11.3333 10.2671 11.077 9.8253 10.6615 9.58791ZM4.16348 5.20392C3.89002 4.96875 3.67497 4.66754 3.5431 4.32504C3.44862 4.07965 3.39683 3.81307 3.39683 3.53439C3.39683 2.31878 4.38227 1.33333 5.59788 1.33333C6.81349 1.33333 7.79894 2.31878 7.79894 3.53439C7.79894 3.84175 7.73594 4.1344 7.62215 4.40012C7.4996 4.68629 7.31815 4.94123 7.09304 5.1497L8.21164 5.9393V7.38624H7.11657C7.15224 7.83931 7.36019 8.29262 7.66303 8.71958C7.8085 8.92467 7.97587 9.12368 8.15656 9.31366C8.74752 9.93501 9.45851 10.4361 9.93069 10.706L10 10.7456V12.8889H1.33333V10.7456L1.40265 10.706C1.87482 10.4361 2.58582 9.93501 3.17677 9.31366C3.35746 9.12368 3.52483 8.92467 3.6703 8.71958C3.97315 8.29262 4.18109 7.83931 4.21676 7.38624H3.12169V5.9393L4.16348 5.20392Z" fill="#F7F9FA" fill-opacity="0.6"/>
</svg>
