<svg width="44" height="27" viewBox="0 0 44 27" fill="none" xmlns="http://www.w3.org/2000/svg">
<path d="M42.7855 6.13267L23.6084 0.240797C22.5634 -0.0802656 21.4359 -0.0802656 20.3916 0.240797L1.21378 6.13267C-0.404594 6.62973 -0.404594 8.76992 1.21378 9.26698L4.55709 10.2941C3.82353 11.2009 3.37253 12.3071 3.32784 13.5185C2.66578 13.898 2.19966 14.5827 2.19966 15.4002C2.19966 16.1413 2.59016 16.7649 3.15253 17.1636L1.39734 25.0616C1.24472 25.7484 1.76722 26.4002 2.47053 26.4002H6.32809C7.03209 26.4002 7.55459 25.7484 7.40197 25.0616L5.64678 17.1636C6.20916 16.7649 6.59966 16.1413 6.59966 15.4002C6.59966 14.6047 6.15484 13.9392 5.52303 13.5529C5.57528 12.5202 6.10328 11.6072 6.94547 11.0284L20.3909 15.1595C21.0138 15.3507 22.2087 15.5892 23.6077 15.1595L42.7855 9.26767C44.4046 8.76992 44.4046 6.63042 42.7855 6.13267ZM24.254 17.2626C22.2925 17.8649 20.6212 17.5321 19.7447 17.2626L9.77453 14.1998L8.79966 22.0002C8.79966 24.4305 14.7094 26.4002 21.9997 26.4002C29.2899 26.4002 35.1997 24.4305 35.1997 22.0002L34.2248 14.1991L24.254 17.2626Z" fill="#1C92E0"/>
</svg>
