<svg width="17" height="17" viewBox="0 0 17 17" fill="none" xmlns="http://www.w3.org/2000/svg">
<path fill-rule="evenodd" clip-rule="evenodd" d="M0 8.125C0 3.6392 3.6392 0 8.125 0C12.6108 0 16.25 3.6392 16.25 8.125C16.25 12.6108 12.6108 16.25 8.125 16.25C3.6392 16.25 0 12.6108 0 8.125ZM8.125 1.25C4.32955 1.25 1.25 4.32955 1.25 8.125C1.25 11.9204 4.32955 15 8.125 15C11.9204 15 15 11.9204 15 8.125C15 4.32955 11.9204 1.25 8.125 1.25ZM7.94337 4.55634C8.1884 4.31322 8.58412 4.31476 8.82725 4.55978L11.928 7.68478C12.1698 7.92846 12.1698 8.32154 11.928 8.56522L8.82725 11.6902C8.58412 11.9352 8.1884 11.9368 7.94337 11.6937C7.69835 11.4505 7.69681 11.0548 7.93994 10.8098L9.98375 8.75H4.76562C4.42045 8.75 4.14062 8.47018 4.14062 8.125C4.14062 7.77982 4.42045 7.5 4.76562 7.5H9.98375L7.93994 5.44022C7.69681 5.19519 7.69835 4.79947 7.94337 4.55634Z" fill="#F7F9FA"/>
</svg>
