<svg width="17" height="19" viewBox="0 0 17 19" fill="none" xmlns="http://www.w3.org/2000/svg">
<path d="M2.4825 18.0001C2.1947 17.9996 1.91199 17.9241 1.66219 17.7812C1.09969 17.4624 0.75 16.8437 0.75 16.172V2.57821C0.75 1.90461 1.09969 1.28774 1.66219 0.968989C1.91794 0.822006 2.20848 0.74642 2.50343 0.75013C2.79839 0.753841 3.08693 0.836713 3.33891 0.990083L14.9569 7.94446C15.199 8.09628 15.3986 8.30711 15.537 8.55718C15.6753 8.80725 15.7479 9.08835 15.7479 9.37415C15.7479 9.65994 15.6753 9.94105 15.537 10.1911C15.3986 10.4412 15.199 10.652 14.9569 10.8038L3.33703 17.7601C3.07917 17.916 2.78382 17.9989 2.4825 18.0001V18.0001Z" stroke="#9DA1A3" stroke-width="1.5" stroke-miterlimit="10" stroke-linecap="round" stroke-linejoin="round"/>
</svg>
