<svg width="20" height="20" viewBox="0 0 20 20" fill="none" xmlns="http://www.w3.org/2000/svg">
<path fill-rule="evenodd" clip-rule="evenodd" d="M9.0625 4.375C8.81386 4.375 8.5754 4.47377 8.39959 4.64959C8.22377 4.8254 8.125 5.06386 8.125 5.3125V6.875C8.125 7.22018 7.84518 7.5 7.5 7.5C7.15482 7.5 6.875 7.22018 6.875 6.875V5.3125C6.875 4.73234 7.10547 4.17594 7.5157 3.7657C7.92594 3.35547 8.48234 3.125 9.0625 3.125H15.3125C15.8927 3.125 16.4491 3.35547 16.8593 3.7657C17.2695 4.17594 17.5 4.73234 17.5 5.3125V14.6875C17.5 15.2677 17.2695 15.8241 16.8593 16.2343C16.4491 16.6445 15.8927 16.875 15.3125 16.875H9.375C8.78813 16.875 8.18633 16.6431 7.72845 16.2843C7.27296 15.9274 6.875 15.373 6.875 14.6875V13.125C6.875 12.7798 7.15482 12.5 7.5 12.5C7.84518 12.5 8.125 12.7798 8.125 13.125V14.6875C8.125 14.8649 8.2331 15.0917 8.49939 15.3004C8.76328 15.5071 9.09898 15.625 9.375 15.625H15.3125C15.5611 15.625 15.7996 15.5262 15.9754 15.3504C16.1512 15.1746 16.25 14.9361 16.25 14.6875V5.3125C16.25 5.06386 16.1512 4.8254 15.9754 4.64959C15.7996 4.47377 15.5611 4.375 15.3125 4.375H9.0625ZM10.8081 6.43306C11.0521 6.18898 11.4479 6.18898 11.6919 6.43306L14.8169 9.55806C15.061 9.80214 15.061 10.1979 14.8169 10.4419L11.6919 13.5669C11.4479 13.811 11.0521 13.811 10.8081 13.5669C10.564 13.3229 10.564 12.9271 10.8081 12.6831L12.8661 10.625H3.125C2.77982 10.625 2.5 10.3452 2.5 10C2.5 9.65482 2.77982 9.375 3.125 9.375H12.8661L10.8081 7.31694C10.564 7.07286 10.564 6.67714 10.8081 6.43306Z" fill="#F7F9FA"/>
</svg>
