<svg width="33" height="18" viewBox="0 0 33 18" fill="none" xmlns="http://www.w3.org/2000/svg">
<path d="M10.9475 4.31095C6.45652 3.21365 3.31806 5.82123 1.38758 2.88918C1.3818 2.87737 1.37603 2.87147 1.37025 2.85967C1.31823 2.77708 1.38758 2.65909 1.48006 2.68268C5.4566 3.65022 6.10395 3.04846 7.77433 3.25494C9.31753 3.44372 10.9475 4.31095 10.9475 4.31095Z" fill="#EFEFEF"/>
<path d="M11.7394 5.04837C7.78589 4.45253 4.98266 7.46717 2.86723 5.14867C2.86145 5.14277 2.85567 5.13097 2.84411 5.12508C2.78631 5.06018 2.82677 4.94219 2.91346 4.94809C6.52589 5.21946 7.37552 4.57052 8.86102 4.50562C10.2481 4.44663 11.7394 5.04837 11.7394 5.04837Z" fill="#EFEFEF"/>
<path d="M12.4733 5.99821C9.02272 5.52036 7.54314 8.68249 4.74568 6.74746C4.7399 6.74156 4.73412 6.73566 4.72256 6.72386C4.66477 6.67077 4.68211 6.51738 4.76302 6.51738C7.82057 6.52328 8.61818 5.79763 9.90717 5.63836C11.6527 5.42596 12.4733 5.99821 12.4733 5.99821Z" fill="#EFEFEF"/>
<path d="M14.0281 7.04246C12.2248 7.23714 12.5081 8.71202 10.5314 8.38165C10.2713 8.34034 10.3291 8.15156 10.4447 8.11617C12.1035 7.63241 12.1035 7.30793 12.6988 7.06605C13.2653 6.84778 14.0281 7.04246 14.0281 7.04246Z" fill="#EFEFEF"/>
<path d="M13.2132 6.58816C10.6122 6.64126 9.94759 8.5468 7.757 7.92735C7.42176 7.83295 7.53736 7.57337 7.71654 7.54978C10.225 7.14272 10.3463 6.76515 11.2769 6.54096C12.1496 6.32859 13.2132 6.58816 13.2132 6.58816Z" fill="#EFEFEF"/>
<path d="M11.7277 4.30508C11.7103 4.33457 11.6699 4.34047 11.641 4.32868C11.1035 4.016 10.6007 3.65023 10.0228 3.24907C9.47939 2.8774 8.31184 2.37004 5.8843 2.48803C4.72833 2.54703 2.97126 2.78891 1.15638 1.52051C0.717103 1.21964 0.272052 0.70638 0.040857 0.228529C0.0177391 0.187226 0.0061803 0.134128 0.000400825 0.0810299C-0.00537865 0.0279318 0.0524157 -0.0133543 0.104447 0.00433979C4.5954 1.84499 5.87852 1.12525 8.70488 1.79189C9.86658 2.06917 11.3058 3.79183 11.722 4.22248C11.7451 4.24019 11.7451 4.27558 11.7277 4.30508Z" fill="#EFEFEF"/>
<path d="M15.635 14.3933C15.5829 14.5583 15.5944 14.7531 15.4905 14.8947C15.3632 15.0835 15.0512 15.1012 14.9009 14.93C14.8027 14.8416 14.8027 14.7001 14.7679 14.5879C14.5426 13.5791 14.3229 12.5702 14.1033 11.5555C14.0802 11.4848 14.1033 11.4375 14.1726 11.4081C14.2825 11.3785 14.294 11.5024 14.3286 11.5733C14.5772 12.2636 14.8084 12.9596 15.0627 13.6498C15.1436 13.8859 15.4154 13.8091 15.5944 13.8682C15.7852 13.992 15.6696 14.2221 15.635 14.3933Z" fill="#EFEFEF"/>
<path d="M15.9297 11.6087C15.9529 11.6736 15.9181 11.7502 15.8488 11.762C15.8084 11.7679 15.7737 11.762 15.7621 11.703C15.5944 11.3608 15.4499 11.001 15.2766 10.6589C15.0512 10.4641 14.8142 10.2635 14.6756 9.98627C14.427 9.5379 14.4501 8.95386 14.7275 8.52319C14.7506 8.49368 14.7679 8.45829 14.7911 8.42879C14.8316 8.36981 14.9183 8.38161 14.9413 8.4524C14.9587 8.5055 14.9702 8.55858 14.9934 8.60578C15.3055 9.6028 15.6061 10.6116 15.9297 11.6087Z" fill="#EFEFEF"/>
<path d="M15.9759 6.85951C15.9644 7.12499 15.8662 7.37277 15.8025 7.62645C15.7967 7.64414 15.791 7.65594 15.7736 7.66184C15.7332 7.67955 15.6928 7.65004 15.6928 7.60875C15.6985 7.26068 15.8199 6.91851 15.7332 6.57633C15.6061 6.11027 15.2939 5.70321 15.2709 5.20765C15.2592 4.94808 15.3228 4.6944 15.3749 4.44072C15.1899 4.04545 15.1032 3.59118 15.2014 3.16053C15.2188 3.10743 15.2246 3.10743 15.2535 3.14872C15.4327 3.41421 15.6696 3.67968 15.6696 4.02774C15.6465 4.52331 15.3806 5.01887 15.5598 5.51443C15.7043 5.95689 16.0164 6.36985 15.9759 6.85951Z" fill="#EFEFEF"/>
<path d="M17.5018 5.14868C17.4903 5.79762 16.9354 6.31677 16.999 6.97753C16.999 7.23121 17.0625 7.49078 17.0336 7.74446C16.9932 7.96864 16.7446 8.00404 16.5656 8.05714C16.4615 8.10434 16.3459 7.98045 16.3748 7.87425C16.3748 7.10732 16.3748 6.33448 16.3748 5.56755C16.3863 5.24898 16.4615 4.91269 16.6753 4.67083C16.8083 4.51153 16.9469 4.35225 17.0914 4.19296C17.1203 4.15756 17.1377 4.11627 17.132 4.07497C17.1203 3.93338 17.0914 3.80949 17.155 3.6443C17.2533 3.43782 17.3805 3.31393 17.5133 3.17824C17.5365 3.15465 17.5711 3.16645 17.577 3.19594C17.6695 3.61481 17.577 4.06907 17.3862 4.44664C17.4325 4.67083 17.5018 4.9068 17.5018 5.14868Z" fill="#EFEFEF"/>
<path d="M24.8018 2.77711C24.0157 3.00128 23.6516 3.27265 23.3396 3.52633C23.3396 3.52633 24.0505 3.27265 25.0734 3.16057C27.975 2.8361 28.1425 3.9393 31.3909 2.65911C31.5006 2.64142 31.5295 2.72991 31.5006 2.77711C31.0672 3.54404 30.5874 4.39356 28.7726 4.47025C26.7959 4.55286 25.7671 3.74462 23.9117 3.9865C22.7269 4.13988 22.1142 4.51745 21.7731 4.74754C25.819 3.957 25.4838 5.77405 29.4487 4.80654C29.495 4.79472 29.5471 4.78293 29.5934 4.78883C29.6973 4.80062 29.7379 4.93043 29.6742 5.00122C29.6453 5.03661 29.6049 5.07201 29.576 5.1074C29.0559 5.67965 28.5067 6.305 26.6571 6.16342C24.4839 5.99822 24.3453 4.62365 20.1953 5.67375C24.218 5.65606 24.1487 7.00114 27.1774 6.59998C27.2814 6.58819 27.3449 6.71798 27.2641 6.78877C27.2178 6.83005 27.1657 6.86546 27.1253 6.90086C26.6688 7.26662 26.004 7.71498 24.7555 7.4554C22.1546 6.90086 22.4842 5.80354 19.1376 6.4053C21.7442 6.47609 21.5651 7.5085 24.2412 7.76218C24.2412 7.76218 24.2412 7.76218 24.2469 7.76218C24.3914 7.77987 24.432 7.97456 24.3105 8.05716C24.218 8.12206 24.1139 8.16924 24.0157 8.21054C22.0622 8.98337 21.1547 6.48199 18.7561 7.04245C20.4727 7.19583 20.3339 7.78577 21.883 8.21644C22.0505 8.26364 22.0333 8.49373 21.8483 8.51142C20.0104 8.7002 20.1722 7.43771 19.0451 7.39051C18.7446 7.37871 18.4671 7.54391 18.3168 7.81528C17.8718 8.6058 18.0509 9.35504 18.022 9.76212C18.126 10.1869 18.2822 10.5999 18.2879 11.0481C18.2937 11.3609 18.2648 11.6853 18.1665 11.9862C17.9815 12.6115 17.7966 13.237 17.6059 13.8682C17.5654 13.9979 17.5711 14.1395 17.6174 14.2634C17.6867 14.4523 17.7562 14.6351 17.7851 14.8357C17.8544 15.1719 17.8082 15.52 17.6926 15.8445C17.4499 16.4521 17.207 17.0598 16.9643 17.6733C16.918 17.7854 16.8834 17.9035 16.8024 17.9978C16.6812 18.0214 16.6927 17.8622 16.7042 17.7854C16.9412 15.5141 17.1666 13.2428 17.3978 10.9715L17.5828 10.4288C17.2187 10.7473 17.0568 11.1897 16.8198 11.5851C16.7909 11.6794 16.6523 11.6971 16.6234 11.591C16.6464 11.1957 16.6984 10.8005 16.7101 10.4051C16.7446 10.004 16.739 9.59693 16.8719 9.21346C17.0221 8.82409 17.3111 8.51142 17.5366 8.17515C17.9064 7.69139 18.1838 7.14273 18.3746 6.56458C18.4902 6.21062 18.733 5.89794 19.0451 5.70326C20.1259 5.00712 20.7558 4.40536 21.7789 3.61483C22.721 2.88918 23.4493 2.32283 23.8656 2.15176C25.7671 1.35532 29.5876 2.21075 32.859 0.0397373C32.9398 -0.00746288 33.0439 0.0869216 32.9804 0.222608C32.674 1.01315 32.3099 1.52051 31.4428 1.95707C28.946 3.21367 26.0791 2.41133 24.8018 2.77711Z" fill="#EFEFEF"/>
<path d="M17.2187 4.13987C17.2187 4.13987 17.0047 3.75641 16.4846 3.70921C16.0915 3.67382 15.9125 3.80951 15.9125 3.80951C15.9125 3.80951 16.3863 3.66792 16.7563 4.00419C17.1261 4.34046 16.9239 4.62954 16.9239 4.62954C16.9239 4.62954 17.3284 4.38766 17.2187 4.13987Z" fill="#EFEFEF"/>
<path d="M17.1955 4.08674C17.1955 4.08674 16.9239 3.79178 16.369 3.76817C16.369 3.76817 16.6984 3.85076 16.7389 4.03365C16.8083 4.38172 16.5078 4.84778 16.45 5.07197C16.4037 5.27255 17.1955 4.08674 17.1955 4.08674Z" fill="#EFEFEF"/>
</svg>
