<svg width="20" height="20" viewBox="0 0 20 20" fill="none" xmlns="http://www.w3.org/2000/svg">
<path fill-rule="evenodd" clip-rule="evenodd" d="M6.66699 1.66667C3.90557 1.66667 1.66699 3.90525 1.66699 6.66667V13.3333C1.66699 16.0948 3.90557 18.3333 6.66699 18.3333H13.3337C16.0951 18.3333 18.3337 16.0948 18.3337 13.3333V6.66667C18.3337 3.90524 16.0951 1.66667 13.3337 1.66667H6.66699ZM15.0003 5.83333C15.4606 5.83333 15.8337 5.46024 15.8337 5C15.8337 4.53976 15.4606 4.16667 15.0003 4.16667C14.5401 4.16667 14.167 4.53976 14.167 5C14.167 5.46024 14.5401 5.83333 15.0003 5.83333ZM14.167 10C14.167 12.3012 12.3015 14.1667 10.0003 14.1667C7.69914 14.1667 5.83366 12.3012 5.83366 10C5.83366 7.69881 7.69914 5.83333 10.0003 5.83333C12.3015 5.83333 14.167 7.69881 14.167 10ZM10.0003 12.5C11.381 12.5 12.5003 11.3807 12.5003 10C12.5003 8.61929 11.381 7.5 10.0003 7.5C8.61961 7.5 7.50033 8.61929 7.50033 10C7.50033 11.3807 8.61961 12.5 10.0003 12.5Z" fill="#F7F9FA" fill-opacity="0.75"/>
</svg>
